<?xml version="1.0" encoding="UTF-8"?><svg id="Layer_2" xmlns="http://www.w3.org/2000/svg" viewBox="0 0 99.51 70.61"><defs><style>.cls-1{fill:#067ac5;}.cls-2{opacity:.5;}.cls-2,.cls-3{fill:#005a82;}.cls-3{opacity:.2;}.cls-4{fill:#070d1c;}</style></defs><g id="Layer_1-2"><path class="cls-4" d="M20.15,48.61v6.67h-4.83v-5.84c0-1.46-.53-2.01-1.3-2.01-.86,0-1.52.58-1.52,2.14v5.71h-4.83v-5.84c0-1.46-.49-2.01-1.31-2.01-.86,0-1.52.58-1.52,2.14v5.71H0v-11.7h4.6v1.09c.88-.88,2.03-1.31,3.32-1.31,1.52,0,2.84.56,3.66,1.78.94-1.13,2.31-1.78,3.91-1.78,2.65,0,4.66,1.56,4.66,5.24Z"/><path class="cls-4" d="M35.04,43.59v9.37c0,4.54-2.65,6.7-7.08,6.7-2.29,0-4.36-.49-5.82-1.46l1.63-3.29c.92.71,2.46,1.16,3.7,1.16,1.95,0,2.74-.88,2.74-2.44v-.08c-.86.75-1.92,1.11-3.08,1.11-2.8,0-4.92-1.65-4.92-5.46v-5.61h4.83v4.77c0,1.67.58,2.23,1.52,2.23.83,0,1.65-.62,1.65-2.35v-4.64h4.83Z"/><path class="cls-4" d="M45.22,54.88c-.75.43-1.84.62-2.97.62-3.23,0-5.11-1.52-5.11-4.75v-9.8h4.83v3.27h2.4v3.53h-2.4v2.95c0,.73.43,1.13,1.01,1.13.38,0,.77-.11,1.09-.32l1.16,3.36Z"/><path class="cls-4" d="M54.83,43.37v4.28c-.43-.06-.73-.08-1.07-.08-1.45,0-2.48.66-2.48,2.52v5.2h-4.83v-11.7h4.6v1.26c.86-.98,2.16-1.48,3.79-1.48Z"/><path class="cls-4" d="M55.7,40.18c0-1.39,1.13-2.46,2.91-2.46s2.91.98,2.91,2.38c0,1.48-1.13,2.54-2.91,2.54s-2.91-1.07-2.91-2.46ZM56.19,43.59h4.83v11.7h-4.83v-11.7Z"/><path class="cls-4" d="M76.62,49.45c0,3.76-2.59,6.05-5.65,6.05-1.28,0-2.27-.32-2.97-1.01v4.94h-4.83v-15.85h4.6v.96c.71-.79,1.75-1.18,3.21-1.18,3.06,0,5.65,2.31,5.65,6.08ZM71.72,49.45c0-1.52-.83-2.31-1.9-2.31s-1.9.79-1.9,2.31.83,2.29,1.9,2.29,1.9-.77,1.9-2.29Z"/><path class="cls-4" d="M82.82,44.23h2.55v3.53h-2.4v7.53h-4.83v-11.12c0-3.02,1.88-4.96,5.22-4.96,1.03,0,2.16.19,2.87.58l-1.16,3.36c-.32-.15-.71-.28-1.09-.28-.68,0-1.16.41-1.16,1.35v.02Z"/><path class="cls-4" d="M99.51,43.59v9.37c0,4.54-2.65,6.7-7.08,6.7-2.29,0-4.36-.49-5.82-1.46l1.63-3.29c.92.71,2.46,1.16,3.7,1.16,1.95,0,2.74-.88,2.74-2.44v-.08c-.86.75-1.92,1.11-3.08,1.11-2.8,0-4.92-1.65-4.92-5.46v-5.61h4.83v4.77c0,1.67.58,2.23,1.52,2.23.83,0,1.65-.62,1.65-2.35v-4.64h4.83Z"/><path class="cls-1" d="M25.58,68.95c-.21.18-.53.27-.84.27-.77,0-1.21-.42-1.21-1.2v-3.5h.69v.83h1.09v.57h-1.09v2.07c0,.41.21.64.6.64.2,0,.4-.06.54-.18l.22.5Z"/><path class="cls-1" d="M25.93,67.26c0-1.14.84-1.95,1.99-1.95s1.98.81,1.98,1.95-.83,1.95-1.98,1.95-1.99-.81-1.99-1.95ZM29.2,67.26c0-.81-.55-1.34-1.28-1.34s-1.29.53-1.29,1.34.55,1.35,1.29,1.35,1.28-.53,1.28-1.35Z"/><path class="cls-1" d="M34.5,65.35v3.3c0,1.35-.68,1.96-1.98,1.96-.7,0-1.4-.19-1.82-.57l.33-.53c.35.3.91.5,1.47.5.9,0,1.31-.42,1.31-1.28v-.3c-.33.4-.83.59-1.38.59-1.1,0-1.94-.75-1.94-1.85s.83-1.84,1.94-1.84c.57,0,1.09.21,1.41.63v-.59h.66ZM33.83,67.16c0-.74-.55-1.24-1.31-1.24s-1.32.5-1.32,1.24.55,1.25,1.32,1.25,1.31-.51,1.31-1.25Z"/><path class="cls-1" d="M38.64,68.15l.38.45c-.34.4-.86.62-1.5.62-1.23,0-2.05-.81-2.05-1.95s.81-1.95,1.92-1.95c1.04,0,1.86.74,1.88,1.87l-3.03.59c.2.53.67.83,1.31.83.45,0,.82-.15,1.1-.46ZM36.14,67.22v.07l2.44-.46c-.12-.55-.58-.94-1.2-.94-.73,0-1.25.53-1.25,1.33Z"/><path class="cls-1" d="M42.24,68.95c-.21.18-.53.27-.84.27-.77,0-1.21-.42-1.21-1.2v-3.5h.69v.83h1.09v.57h-1.09v2.07c0,.41.21.64.6.64.2,0,.4-.06.54-.18l.22.5Z"/><path class="cls-1" d="M46.69,66.97v2.2h-.69v-2.12c0-.75-.38-1.12-1.03-1.12-.73,0-1.21.44-1.21,1.27v1.97h-.69v-5.34h.69v2.07c.29-.37.76-.58,1.35-.58.93,0,1.58.53,1.58,1.66Z"/><path class="cls-1" d="M50.82,68.15l.38.45c-.34.4-.86.62-1.5.62-1.23,0-2.05-.81-2.05-1.95s.81-1.95,1.92-1.95c1.04,0,1.86.74,1.88,1.87l-3.03.59c.2.53.67.83,1.31.83.45,0,.82-.15,1.1-.46ZM48.31,67.22v.07l2.44-.46c-.12-.55-.58-.94-1.2-.94-.73,0-1.25.53-1.25,1.33Z"/><path class="cls-1" d="M54.45,65.32v.67c-.06,0-.11,0-.16,0-.74,0-1.2.45-1.2,1.29v1.9h-.69v-3.82h.66v.64c.24-.45.72-.68,1.39-.68Z"/><path class="cls-1" d="M55.92,68.71c0,.14-.03.25-.12.52l-.34,1h-.45l.27-1.07c-.18-.07-.3-.23-.3-.45,0-.29.21-.49.48-.49s.47.21.47.49Z"/><path class="cls-1" d="M65.19,66.97v2.2h-.69v-2.12c0-.75-.36-1.12-.99-1.12-.69,0-1.15.44-1.15,1.27v1.97h-.69v-2.12c0-.75-.36-1.12-.99-1.12-.69,0-1.15.44-1.15,1.27v1.97h-.69v-3.82h.66v.57c.27-.39.74-.61,1.32-.61s1.07.23,1.33.71c.29-.43.82-.71,1.47-.71.93,0,1.56.53,1.56,1.66Z"/><path class="cls-1" d="M66.12,67.26c0-1.14.84-1.95,1.99-1.95s1.98.81,1.98,1.95-.83,1.95-1.98,1.95-1.99-.81-1.99-1.95ZM69.39,67.26c0-.81-.55-1.34-1.28-1.34s-1.29.53-1.29,1.34.55,1.35,1.29,1.35,1.28-.53,1.28-1.35Z"/><path class="cls-1" d="M73.1,65.32v.67c-.06,0-.11,0-.16,0-.74,0-1.2.45-1.2,1.29v1.9h-.69v-3.82h.66v.64c.24-.45.72-.68,1.39-.68Z"/><path class="cls-1" d="M76.74,68.15l.38.45c-.34.4-.86.62-1.5.62-1.23,0-2.05-.81-2.05-1.95s.81-1.95,1.92-1.95c1.04,0,1.86.74,1.88,1.87l-3.03.59c.2.53.67.83,1.31.83.45,0,.82-.15,1.1-.46ZM74.23,67.22v.07l2.44-.46c-.12-.55-.58-.94-1.2-.94-.73,0-1.25.53-1.25,1.33Z"/><path class="cls-1" d="M77.71,22.39c0-2.13-.79-4.14-2.22-5.65h0s-13.16-14.05-13.16-14.05c-1.63-1.74-3.8-2.69-6.11-2.69s-4.47.95-6.1,2.68l-3.28,3.48h0s-3.36,3.57-3.36,3.57h0s-.83.88-.83.88h0s0,0,0,0l-1.54-1.69c-1.15-1.22-2.69-1.9-4.33-1.9s-3.18.67-4.33,1.9l-3.75,3.99h0s-3.57,3.8-3.57,3.8h0c-1.45,1.52-2.24,3.53-2.24,5.68,0,4.42,3.43,8.02,7.64,8.02,2.13,0,4.18-.94,5.62-2.59l2.84-3.02,3.57-3.79h0s2.43,2.69,2.43,2.69h0c1.52,1.64,3.63,2.58,5.82,2.58s4.17-.87,5.69-2.45h0s2.08-2.18,2.08-2.18l5.51,5.86.54.54c1.31,1.38,3.01,2.2,4.84,2.35h0s.01,0,.02,0c.08,0,.17.01.25.02.1,0,.21,0,.31,0,.05,0,.09,0,.14,0h0c4.15-.08,7.5-3.64,7.5-8.02ZM37.82,15.77l-6.11,6.49h0s-.65.69-.65.69l-.04.05c-.09.11-.25.23-.48.23-.39,0-.7-.38-.7-.84,0-.33.15-.54.25-.64l.03-.03,3.05-3.24h0s3.62-3.85,3.62-3.85l1.03,1.14M47.41,15.86l4.61-4.9h0s3.08-3.27,3.08-3.27c.31-.33.71-.5,1.13-.5s.82.18,1.13.5l13.16,14.04.02.02c.09.1.25.3.25.64,0,.41-.24.75-.57.83h0s-.09.02-.14.02c-.22,0-.37-.11-.46-.21l-.12-.13h0s-6.94-7.33-6.94-7.33c-1.05-1.12-2.45-1.73-3.95-1.73s-2.89.61-3.94,1.72l-3.04,3.19c-.16.17-.42.36-.8.36s-.66-.21-.8-.36l-2.61-2.88"/><path class="cls-2" d="M37.82,15.77l4.75,5.24-.75.8-5.6-4.34,1.6-1.7Z"/><polyline class="cls-3" points="47.41 15.86 42.66 10.62 44.26 8.91 48.3 14.92"/></g></svg>