<?xml version="1.0" encoding="UTF-8"?><svg id="Layer_2" xmlns="http://www.w3.org/2000/svg" viewBox="0 0 101.44 65.21"><defs><style>.cls-1{fill:#067ac5;}.cls-2{opacity:.5;}.cls-2,.cls-3{fill:#005a82;}.cls-3{opacity:.2;}</style></defs><g id="Layer_1-2"><path class="cls-1" d="M20.54,53.96v6.8h-4.93v-5.95c0-1.48-.54-2.05-1.33-2.05-.87,0-1.55.59-1.55,2.18v5.82h-4.93v-5.95c0-1.48-.5-2.05-1.33-2.05-.87,0-1.55.59-1.55,2.18v5.82H0v-11.93h4.69v1.11c.89-.89,2.07-1.33,3.38-1.33,1.55,0,2.9.57,3.73,1.81.96-1.16,2.35-1.81,3.99-1.81,2.7,0,4.75,1.59,4.75,5.34Z"/><path class="cls-1" d="M35.72,48.83v9.55c0,4.62-2.7,6.83-7.22,6.83-2.33,0-4.45-.5-5.93-1.48l1.66-3.36c.94.72,2.51,1.18,3.77,1.18,1.98,0,2.79-.89,2.79-2.49v-.09c-.87.76-1.96,1.13-3.14,1.13-2.86,0-5.01-1.68-5.01-5.56v-5.71h4.93v4.86c0,1.7.59,2.27,1.55,2.27.85,0,1.68-.63,1.68-2.4v-4.73h4.93Z"/><path class="cls-1" d="M46.1,60.35c-.76.44-1.88.63-3.03.63-3.29,0-5.21-1.55-5.21-4.84v-9.99h4.93v3.34h2.44v3.6h-2.44v3.01c0,.74.44,1.16,1.02,1.16.39,0,.79-.11,1.11-.33l1.18,3.42Z"/><path class="cls-1" d="M55.89,48.62v4.36c-.44-.07-.74-.09-1.09-.09-1.48,0-2.53.68-2.53,2.57v5.3h-4.93v-11.93h4.69v1.29c.87-1,2.2-1.5,3.86-1.5Z"/><path class="cls-1" d="M56.78,45.37c0-1.42,1.16-2.51,2.96-2.51s2.97,1,2.97,2.42c0,1.5-1.16,2.59-2.97,2.59s-2.96-1.09-2.96-2.51ZM57.29,48.83h4.93v11.93h-4.93v-11.93Z"/><path class="cls-1" d="M78.11,54.81c0,3.84-2.64,6.17-5.76,6.17-1.31,0-2.31-.33-3.03-1.02v5.04h-4.93v-16.16h4.69v.98c.72-.81,1.79-1.2,3.27-1.2,3.12,0,5.76,2.36,5.76,6.19ZM73.12,54.81c0-1.55-.85-2.35-1.94-2.35s-1.94.81-1.94,2.35.85,2.33,1.94,2.33,1.94-.79,1.94-2.33Z"/><path class="cls-1" d="M84.43,49.49h2.59v3.6h-2.44v7.68h-4.93v-11.34c0-3.07,1.92-5.06,5.32-5.06,1.05,0,2.2.2,2.92.59l-1.18,3.42c-.33-.15-.72-.28-1.11-.28-.7,0-1.18.42-1.18,1.37v.02Z"/><path class="cls-1" d="M101.44,48.83v9.55c0,4.62-2.7,6.83-7.22,6.83-2.33,0-4.45-.5-5.93-1.48l1.66-3.36c.94.72,2.51,1.18,3.77,1.18,1.98,0,2.79-.89,2.79-2.49v-.09c-.87.76-1.96,1.13-3.14,1.13-2.86,0-5.01-1.68-5.01-5.56v-5.71h4.93v4.86c0,1.7.59,2.27,1.55,2.27.85,0,1.68-.63,1.68-2.4v-4.73h4.93Z"/><path class="cls-1" d="M79.22,22.89c0-2.18-.8-4.23-2.27-5.78h0s-13.46-14.37-13.46-14.37c-1.67-1.77-3.88-2.75-6.24-2.75s-4.58.97-6.24,2.74l-3.35,3.56h0s-3.44,3.66-3.44,3.66h0s-.85.9-.85.9h0s0,0,0,0l-1.57-1.73c-1.18-1.25-2.75-1.94-4.43-1.94s-3.25.69-4.43,1.94l-3.83,4.08h0s-3.66,3.89-3.66,3.89h0c-1.48,1.55-2.29,3.61-2.29,5.81,0,4.53,3.5,8.21,7.81,8.21,2.18,0,4.27-.96,5.75-2.65l2.9-3.08,3.65-3.88h0s2.49,2.75,2.49,2.75h0c1.56,1.68,3.71,2.64,5.95,2.64s4.26-.89,5.82-2.5h0s2.13-2.23,2.13-2.23l5.63,5.99.56.55c1.34,1.42,3.08,2.25,4.95,2.4h0s.01,0,.02,0c.08,0,.17.01.26.02.11,0,.21,0,.32,0,.05,0,.09,0,.14,0h0c4.24-.08,7.67-3.73,7.67-8.2ZM38.42,16.12l-6.25,6.64h0s-.66.71-.66.71l-.04.05c-.1.11-.26.24-.49.24-.4,0-.72-.39-.72-.86,0-.34.16-.56.25-.65l.03-.03,3.12-3.32h0s3.7-3.94,3.7-3.94l1.06,1.17M48.23,16.22l4.71-5.01h0s3.15-3.35,3.15-3.35c.31-.33.72-.52,1.15-.52s.84.18,1.15.52l13.45,14.36.02.02c.09.1.25.31.25.65,0,.42-.25.77-.58.84h0s-.09.02-.14.02c-.22,0-.38-.12-.47-.22l-.12-.13h0s-7.09-7.5-7.09-7.5c-1.07-1.14-2.51-1.77-4.04-1.77s-2.96.63-4.03,1.76l-3.11,3.26c-.16.17-.43.37-.82.37s-.67-.21-.82-.37l-2.66-2.94"/><path class="cls-2" d="M38.42,16.12l4.86,5.36-.77.82-5.72-4.44,1.64-1.74Z"/><polyline class="cls-3" points="48.23 16.22 43.38 10.86 45.01 9.12 49.14 15.25"/></g></svg>