<?xml version="1.0" encoding="UTF-8"?><svg id="Layer_2" xmlns="http://www.w3.org/2000/svg" viewBox="0 0 150.63 24.83"><defs><style>.cls-1{fill:#067ac5;}.cls-2{opacity:.5;}.cls-2,.cls-3{fill:#005a82;}.cls-3{opacity:.2;}</style></defs><g id="Layer_1-2"><path class="cls-1" d="M72.25,10.76v6.59h-4.78v-5.77c0-1.44-.53-1.99-1.29-1.99-.85,0-1.5.57-1.5,2.11v5.64h-4.78v-5.77c0-1.44-.49-1.99-1.29-1.99-.84,0-1.5.57-1.5,2.11v5.64h-4.78V5.79h4.54v1.08c.87-.87,2.01-1.29,3.28-1.29,1.5,0,2.81.55,3.61,1.75.93-1.12,2.28-1.75,3.87-1.75,2.62,0,4.61,1.54,4.61,5.18Z"/><path class="cls-1" d="M86.95,5.79v9.26c0,4.48-2.62,6.62-7,6.62-2.26,0-4.31-.49-5.75-1.44l1.61-3.25c.91.7,2.43,1.14,3.66,1.14,1.92,0,2.71-.87,2.71-2.41v-.08c-.84.74-1.9,1.1-3.04,1.1-2.77,0-4.86-1.63-4.86-5.39v-5.54h4.78v4.71c0,1.65.57,2.2,1.5,2.2.82,0,1.63-.61,1.63-2.32v-4.59h4.78Z"/><path class="cls-1" d="M97.01,16.95c-.74.42-1.82.61-2.94.61-3.19,0-5.05-1.5-5.05-4.69V3.19h4.78v3.23h2.37v3.49h-2.37v2.92c0,.72.42,1.12.99,1.12.38,0,.76-.11,1.08-.32l1.14,3.32Z"/><path class="cls-1" d="M106.49,5.58v4.23c-.42-.06-.72-.08-1.06-.08-1.44,0-2.45.66-2.45,2.49v5.14h-4.78V5.79h4.54v1.25c.84-.97,2.13-1.46,3.74-1.46Z"/><path class="cls-1" d="M107.36,2.43c0-1.37,1.12-2.43,2.87-2.43s2.88.97,2.88,2.35c0,1.46-1.12,2.51-2.88,2.51s-2.87-1.06-2.87-2.43ZM107.84,5.79h4.78v11.56h-4.78V5.79Z"/><path class="cls-1" d="M128.02,11.58c0,3.72-2.56,5.98-5.58,5.98-1.27,0-2.24-.32-2.94-.99v4.88h-4.78V5.79h4.54v.95c.7-.78,1.73-1.16,3.17-1.16,3.02,0,5.58,2.28,5.58,6ZM123.18,11.58c0-1.5-.82-2.28-1.88-2.28s-1.88.78-1.88,2.28.82,2.26,1.88,2.26,1.88-.76,1.88-2.26Z"/><path class="cls-1" d="M134.15,6.42h2.52v3.49h-2.37v7.44h-4.78V6.36c0-2.98,1.86-4.9,5.16-4.9,1.01,0,2.13.19,2.83.57l-1.14,3.32c-.32-.15-.7-.27-1.08-.27-.68,0-1.14.4-1.14,1.33v.02Z"/><path class="cls-1" d="M150.63,5.79v9.26c0,4.48-2.62,6.62-7,6.62-2.26,0-4.31-.49-5.75-1.44l1.61-3.25c.91.7,2.43,1.14,3.66,1.14,1.92,0,2.71-.87,2.71-2.41v-.08c-.84.74-1.9,1.1-3.04,1.1-2.77,0-4.86-1.63-4.86-5.39v-5.54h4.78v4.71c0,1.65.57,2.2,1.5,2.2.82,0,1.63-.61,1.63-2.32v-4.59h4.78Z"/><path class="cls-1" d="M44.32,18.35c0-1.73-.64-3.34-1.79-4.57h0S31.88,2.42,31.88,2.42c-1.32-1.4-3.07-2.17-4.94-2.17s-3.62.77-4.93,2.16l-2.65,2.82h0s-2.72,2.89-2.72,2.89h0s-.67.71-.67.71h0s0,0,0,0l-1.24-1.37c-.93-.99-2.17-1.54-3.5-1.54s-2.57.55-3.5,1.54l-3.03,3.22h0s-2.89,3.07-2.89,3.07h0c-1.17,1.23-1.81,2.85-1.81,4.59,0,3.58,2.77,6.49,6.18,6.49,1.72,0,3.38-.76,4.54-2.09l2.29-2.44,2.89-3.07h0s1.97,2.17,1.97,2.17h0c1.23,1.33,2.93,2.09,4.71,2.09s3.37-.7,4.6-1.98h0s1.68-1.77,1.68-1.77l4.45,4.73.44.44c1.06,1.12,2.43,1.78,3.92,1.9h0s0,0,.01,0c.07,0,.13,0,.2.01.08,0,.17,0,.25,0,.04,0,.07,0,.11,0h0c3.36-.06,6.07-2.95,6.07-6.48ZM12.06,12.99l-4.94,5.25h0s-.52.56-.52.56l-.03.04c-.08.09-.2.19-.39.19-.31,0-.57-.31-.57-.68,0-.27.12-.44.2-.52l.02-.02,2.47-2.62h0s2.93-3.11,2.93-3.11l.84.92M19.82,13.07l3.73-3.96h0s2.49-2.65,2.49-2.65c.25-.26.57-.41.91-.41s.66.14.91.41l10.64,11.35.02.02c.07.08.2.25.2.52,0,.33-.2.61-.46.67h0s-.07.01-.11.01c-.17,0-.3-.09-.37-.17l-.1-.1h0s-5.61-5.93-5.61-5.93c-.85-.9-1.98-1.4-3.2-1.4s-2.34.49-3.19,1.39l-2.46,2.58c-.13.13-.34.29-.65.29s-.53-.17-.65-.29l-2.11-2.33"/><path class="cls-2" d="M12.06,12.99l3.84,4.24-.61.65-4.53-3.51,1.29-1.38Z"/><polyline class="cls-3" points="19.82 13.07 15.98 8.83 17.27 7.45 20.54 12.31"/></g></svg>