<?xml version="1.0" encoding="UTF-8"?><svg id="Layer_2" xmlns="http://www.w3.org/2000/svg" viewBox="0 0 44.32 24.59"><defs><style>.cls-1{fill:#067ac5;}</style></defs><g id="Layer_1-2"><path class="cls-1" d="M44.32,18.1c0-1.73-.64-3.34-1.79-4.57h0S31.88,2.17,31.88,2.17c-1.32-1.4-3.07-2.17-4.94-2.17s-3.62.77-4.93,2.16l-2.65,2.82h0s-2.72,2.89-2.72,2.89h0s-.67.71-.67.71h0s0,0,0,0l-1.24-1.37c-.93-.99-2.17-1.54-3.5-1.54s-2.57.55-3.5,1.54l-3.03,3.22h0s-2.89,3.07-2.89,3.07h0c-1.17,1.23-1.81,2.85-1.81,4.59,0,3.58,2.77,6.49,6.18,6.49,1.72,0,3.38-.76,4.54-2.09l2.29-2.44,2.89-3.07h0s1.97,2.17,1.97,2.17h0c1.23,1.33,2.93,2.09,4.71,2.09s3.37-.7,4.6-1.98h0s1.68-1.77,1.68-1.77l4.45,4.73.44.44c1.06,1.12,2.43,1.78,3.92,1.9h0s0,0,.01,0c.07,0,.13,0,.2.01.08,0,.17,0,.25,0,.04,0,.07,0,.11,0h0c3.36-.06,6.07-2.95,6.07-6.48ZM12.06,12.75l-4.94,5.25h0s-.52.56-.52.56l-.03.04c-.08.09-.2.19-.39.19-.31,0-.57-.31-.57-.68,0-.27.12-.44.2-.52l.02-.02,2.47-2.62h0s2.93-3.11,2.93-3.11l.84.92M19.82,12.82l3.73-3.96h0s2.49-2.65,2.49-2.65c.25-.26.57-.41.91-.41s.66.14.91.41l10.64,11.35.02.02c.07.08.2.25.2.52,0,.33-.2.61-.46.67h0s-.07.01-.11.01c-.17,0-.3-.09-.37-.17l-.1-.1h0s-5.61-5.93-5.61-5.93c-.85-.9-1.98-1.4-3.2-1.4s-2.34.49-3.19,1.39l-2.46,2.58c-.13.13-.34.29-.65.29s-.53-.17-.65-.29l-2.11-2.33"/></g></svg>